<svg width="32" height="32" viewBox="0 0 32 32" fill="none" xmlns="http://www.w3.org/2000/svg">
  <circle cx="16" cy="16" r="16" fill="#3B82F6"/>
  <circle cx="12" cy="12" r="2" fill="white"/>
  <circle cx="20" cy="12" r="2" fill="white"/>
  <path d="M12 18 Q16 22 20 18" stroke="white" stroke-width="2" fill="none"/>
  <path d="M8 8 Q6 6 8 4" stroke="white" stroke-width="1.5" fill="none"/>
  <path d="M24 8 Q26 6 24 4" stroke="white" stroke-width="1.5" fill="none"/>
  <path d="M6 12 Q4 10 6 8" stroke="white" stroke-width="1.5" fill="none"/>
  <path d="M26 12 Q28 10 26 8" stroke="white" stroke-width="1.5" fill="none"/>
  <path d="M8 16 Q6 14 8 12" stroke="white" stroke-width="1.5" fill="none"/>
  <path d="M24 16 Q26 14 24 12" stroke="white" stroke-width="1.5" fill="none"/>
  <path d="M6 20 Q4 18 6 16" stroke="white" stroke-width="1.5" fill="none"/>
  <path d="M26 20 Q28 18 26 16" stroke="white" stroke-width="1.5" fill="none"/>
</svg>
